<svg xmlns="http://www.w3.org/2000/svg" width="216.241" height="227.045" viewBox="0 0 216.241 227.045">
  <g id="Layer_2" data-name="Layer 2" transform="translate(-0.011 0.005)">
    <g id="Layer_1" data-name="Layer 1" transform="translate(0.011 -0.005)">
      <path id="Path_414" data-name="Path 414" d="M176.86,45.151a97.092,97.092,0,0,0-143.154,0,91.737,91.737,0,0,0-23.238,73.2l8.961,70.515C21.82,208,39.463,222.454,60.27,222.454H150.31c20.874,0,38.45-14.437,40.867-33.575l8.935-70.5a91.737,91.737,0,0,0-23.251-73.226Z" transform="translate(3.26 4.59)" fill="#99cef6"/>
      <path id="Path_415" data-name="Path 415" d="M140.516,211.887H65.727c-20.874,0-38.436-14.424-40.867-33.562L16.848,115.2C10.45,64.593,50.89,20,103.122,20h0c52.245,0,92.685,44.646,86.274,95.249l-8.013,63.13C178.966,197.463,161.4,211.887,140.516,211.887Z" transform="translate(5.415 6.717)" fill="#f87e7d"/>
      <path id="Path_416" data-name="Path 416" d="M70.373,123.3l-3.82,18.457H38.507a117.882,117.882,0,0,0,1.336-12.848L38,125.717Z" transform="translate(12.736 41.376)" fill="#c48662"/>
      <path id="Path_417" data-name="Path 417" d="M86.478,102.012c-.4,9.095-4.327,41.4-4.728,44.593s-.4,5.476-3.726,6.971c-2.671,1.175-8.574-.12-13.542-1.1-1.336-.254-2.564-.494-3.659-.641-3.018-.441-9.736-.414-15.358-.441a66.979,66.979,0,0,1-8.694-.307c-2.4-.628-2.31-2.751-1.2-10.35.6-4.1.347-16.56,1.108-29.248a2.911,2.911,0,0,1,0-.321,1.148,1.148,0,0,1,0-.214c0-.08,0-.147,0-.24,0-.574.134-1.469.254-2.671h-.08c.735-9.7,2.15-19.1,5.1-24.547a19.686,19.686,0,0,1,3.406-4.567h0a22.6,22.6,0,0,1,8.013-5.062,33.5,33.5,0,0,1,8.6-1.843,20.781,20.781,0,0,1,11.819,2.244C85.4,80.47,86.825,94.212,86.478,102.012Z" transform="translate(11.668 24.135)" fill="#e5e5e4"/>
      <path id="Path_418" data-name="Path 418" d="M74.722,74.826S46.476,84.843,47.224,103.7c.841,21.368.494,58.242.494,58.242l95.169-.094s12.768-49.8,6.584-75.5c-12.394-15.826-19.044-18.817-42.109-22.6S74.722,74.826,74.722,74.826Z" transform="translate(15.825 21.191)" fill="#e1e1e1"/>
      <path id="Path_419" data-name="Path 419" d="M129.154,125.009a48.08,48.08,0,0,1-2.951,8.935c-.708,1.709-2.043,4.474-3.566,7.546H93.91c2.671-7.666,5.876-17.669,5.876-17.669a84.829,84.829,0,0,0,9.2.267c5.956,0,13.088,0,16.293.374C126.443,124.581,127.765,124.782,129.154,125.009Z" transform="translate(31.494 41.55)" fill="#c48662"/>
      <path id="Path_420" data-name="Path 420" d="M71.008,99.536c-.347,1.656-.922.881-2.4,2.417-5.008,9.482-4.367,53.3-4.367,53.3,13.355-58.122,41.989-77.767,41.989-77.767a9.87,9.87,0,0,1-4.608-7.225c-.361-2.391-.494-8.2-.534-12.34V48.573a3.446,3.446,0,0,0,3.659,0c1.456-.708,2.845-3.7,4.007-7.052.681-1.937,1.336-2.671,1.776-4.5a11.594,11.594,0,0,0,.441-2.444,33.389,33.389,0,0,1-7.4-2.671,13.248,13.248,0,0,0-.761,2.671,16.948,16.948,0,0,1-2.671,5.582c0-.214,1.042-4.26,0-6.25A9.348,9.348,0,0,1,99.08,29.9h0a31.425,31.425,0,0,1-8.013-5.5c1.456,1.509,6.945,8.133,6.5,21.742C97.3,54.6,96.236,58.269,94.58,61.38h0a86.463,86.463,0,0,0-4.848,9.349A34.136,34.136,0,0,0,87.208,88a13.275,13.275,0,0,1-1.055-6.063,3.262,3.262,0,0,1,0-.361v-.507l.08-.828V79.53a1.688,1.688,0,0,1,.093-.588l.08-.534.2-.975c.093-.441.2-.868.321-1.336s.147-.574.227-.868l.321-1.042h0l.28-.855c.134-.374.254-.735.387-1.1s.267-.708.414-1.055l.28-.708a2.226,2.226,0,0,0,.107-.267l.2-.467c.361-.828.721-1.616,1.1-2.364l.361-.735h0a27.018,27.018,0,0,1,1.5-2.671c.227-.387.454-.788.654-1.189-4.34,3.312-9.963,6.29-12.781,6.865a18.844,18.844,0,0,1-8.681,0S75.188,79.957,71.008,99.536Z" transform="translate(21.529 8.193)" fill="#c48662"/>
      <path id="Path_421" data-name="Path 421" d="M101.511,32.936c2.5.307,4.981.427,7.506,3.78a10.882,10.882,0,0,1,.868,1.336m-17.615,1.1c-2.671-9.162-4.9-11.526-4.9-11.526l-3.846-2.9c.12.307,4.007,10.123,5.582,13.275s4.848,9.482,4.848,13.809c0,0,1.028-3.552-1.683-12.714ZM87.622,38.2c-1.723-3.152-7.345-14.343-9.349-17.8A21.368,21.368,0,0,0,70.26,12.77s9.148,15.666,13.182,23.291S90.68,48.281,91.789,49.3a93.487,93.487,0,0,0-4.167-11.152Z" transform="translate(23.559 4.291)" fill="none"/>
      <path id="Path_422" data-name="Path 422" d="M97.788,57.764a21.275,21.275,0,0,1-2.11,8.547A41.722,41.722,0,0,1,82.9,73.189a16.026,16.026,0,0,1-8.681,0h0l-.6-.174-.347-.08L72.88,72.8l-.788-.307-.441-.187-.521-.254c-.147-.08-.307-.147-.454-.24l-.24-.12h0l-.387-.227c-.2-.107-.414-.24-.614-.374l-.628-.414c-5.222-3.633-8.294-11.178-10.47-18.123-1.055-3.352-1.683-9.5-2.057-14.931,0-1.856.12-3.713.294-5.569a28.647,28.647,0,0,1,3.245-10.417c1.5-2.871,3.339-6.05,6.678-6.9a6.784,6.784,0,0,1,6.571,1.87,36.967,36.967,0,0,1,7.052,9.642c1.522,2.671,2.671,5.6,4.1,8.36A50.842,50.842,0,0,0,95.624,49.3C97.961,51.447,97.921,54.892,97.788,57.764Z" transform="translate(18.869 4.879)" fill="#c48662"/>
      <path id="Path_423" data-name="Path 423" d="M68.5,18.228l8.013-2.9S85.488,24,85.862,24.265s3.1.507,3.552,2.564,4.007,9.188,4.594,11.7,1.5,12.781,1.149,13.542-6.811-1.883-6.811-1.883Z" transform="translate(22.969 5.15)" fill="#c48662"/>
      <path id="Path_424" data-name="Path 424" d="M61.09,64.58l.494.214" transform="translate(20.483 21.674)" fill="none"/>
      <path id="Path_425" data-name="Path 425" d="M91.829,49.256c-1.108-1.015-4.327-5.6-8.347-13.235S70.3,12.73,70.3,12.73a21.368,21.368,0,0,1,8.013,7.626c2.017,3.459,7.639,14.691,9.349,17.8A93.491,93.491,0,0,1,91.829,49.256Z" transform="translate(23.573 4.278)" fill="none"/>
      <path id="Path_426" data-name="Path 426" d="M90.614,48.824c0-4.354-3.245-10.684-4.821-13.889S80.33,21.967,80.21,21.66l3.846,2.9s2.177,2.364,4.9,11.526S90.614,48.824,90.614,48.824Z" transform="translate(26.898 7.274)" fill="none"/>
      <path id="Path_427" data-name="Path 427" d="M87.622,38.158c-1.723-3.152-7.345-14.343-9.349-17.8A21.368,21.368,0,0,0,70.26,12.73S79.408,28.4,83.442,36.021s7.239,12.22,8.347,13.235a93.489,93.489,0,0,0-4.167-11.1Zm4.648.948c-2.671-9.162-4.9-11.526-4.9-11.526l-3.846-2.9c.12.307,4.007,10.123,5.582,13.275s4.848,9.536,4.848,13.863C93.952,51.821,94.98,48.268,92.269,39.106Z" transform="translate(23.559 4.278)" fill="none"/>
      <path id="Path_428" data-name="Path 428" d="M112.529,20.712h0c-1.242-3.085-.788-5.342-3.419-10.243C105.8,4.272,97.091-2.045,84.27.706a15.625,15.625,0,0,0-8.013.374,21.8,21.8,0,0,0-5.342,3.339,30.437,30.437,0,0,0-4.941,4.474,18.764,18.764,0,0,0-3.512,5.956s-6.477,6.1-7.653,14.237a104.171,104.171,0,0,0-.521,17.362A85.848,85.848,0,0,0,55.863,63.9a30.25,30.25,0,0,0,1.95,4.995c.708,1.683,1.336,3.392,2,5.088a72.011,72.011,0,0,1,3.352,10.831c.093.494.187.975.267,1.456l.494.214c-.08-1.482-.187-2.965-.28-4.421a62.342,62.342,0,0,0-2.671-14.611l-.134-.441a104.173,104.173,0,0,1-3.232-10.778,43.537,43.537,0,0,1-.788-7.679V42.415A14.692,14.692,0,0,1,56.905,40a28.446,28.446,0,0,1,2.858-10.524c1.5-2.871,4.007-7.906,7.305-8.761a6.784,6.784,0,0,1,6.571,1.87A31.452,31.452,0,0,1,80.664,31c1.522,2.671,2.671,5.6,4.1,8.374A50.75,50.75,0,0,0,96.169,54.06c2.31,2.083,2.27,5.542,2.137,8.4a21.368,21.368,0,0,1-2.11,8.561c-.2.4-.427.8-.654,1.189-3.219,5.342-8.347,16.974-5.035,24.039a34.136,34.136,0,0,1,2.524-17.2A86.466,86.466,0,0,1,97.879,69.7h0c1.589-3.112,2.671-6.784,2.992-15.238.441-13.609-5.048-20.233-6.5-21.742a31.425,31.425,0,0,0,8.013,5.5h0l.841.374,3.285,1.4.414.174a33.388,33.388,0,0,0,7.4,2.671h.267q.361,0,.641-.561m-26.323-2C84.9,32.652,78.22,23.01,78.22,23.01a18.991,18.991,0,0,1,8.24,6.811c2,3.459,4.821,9.442,6.544,12.594a93.486,93.486,0,0,1,4.22,11.1C96.143,52.5,92.924,47.917,88.9,40.278Zm8.774,3.085c2.711,9.162,1.683,12.714,1.683,12.714,0-4.354-3.245-10.684-4.821-13.889S89.078,29.22,88.957,28.913l3.846,2.9S94.954,34.2,97.678,43.363Z" transform="translate(18.15 0.022)" fill="#37271c"/>
      <path id="Path_429" data-name="Path 429" d="M93.66,27.87c2.5.307,4.981.427,7.506,3.78a10.881,10.881,0,0,1,.868,1.336" transform="translate(31.41 9.358)" fill="none"/>
      <path id="Path_430" data-name="Path 430" d="M80.64,18.76c3.205,4.808,8.788,7.666,12.821,10.684a9.068,9.068,0,0,0,4.567,1.549" transform="translate(27.042 6.301)" fill="none"/>
      <path id="Path_431" data-name="Path 431" d="M80.52,5.91A62.048,62.048,0,0,1,91.1,12.24c5.422,4.007,9.349,5.729,11.312,6.183l1.336.321" transform="translate(27.002 1.99)" fill="none"/>
      <path id="Path_432" data-name="Path 432" d="M83.955,33.842s-6.1-9.228-11.3-12.22-8.828.16-9.576,1.843-2.244,6.878-3.526,9.682a27.846,27.846,0,0,0-3.419,14.183c.187,7.679-.427-7.786-.507-8.107s0-13.929,0-13.929,8.334-11,9.255-11.472,2.671-1.683,2.9-1.683,17.575,7.118,19.071,9.789a27.126,27.126,0,0,1,2.03,4.594S81.845,20.861,77.251,21.3c0,0,4.287,3.539,5.048,5.823S83.955,33.842,83.955,33.842Z" transform="translate(18.638 4.08)" fill="#37271c"/>
      <path id="Path_433" data-name="Path 433" d="M99.525,37.26c-1.175,3.352-2.564,6.344-4.007,7.052a3.446,3.446,0,0,1-3.659,0s-.08,4.407,0,9.349c0,0,9.656,5.342,12.594-1.162S99.525,37.26,99.525,37.26Zm3.018,15.318a6.063,6.063,0,0,1-6.678,1.416s10.177,1.229,5.89-11.165C101.929,43.11,105.414,49.56,102.543,52.578Z" transform="translate(30.794 12.508)" fill="#2d2016"/>
      <path id="Path_434" data-name="Path 434" d="M93.9,30.1a13.25,13.25,0,0,0-.761,2.671l.347-2.845Z" transform="translate(31.236 10.049)" fill="none"/>
      <path id="Path_435" data-name="Path 435" d="M94.837,30.563l-.761,2.671a16.948,16.948,0,0,1-2.671,5.582c0-.214,1.042-4.26,0-6.25A9.349,9.349,0,0,1,90.35,28.56l.841.374Z" transform="translate(30.3 9.589)" fill="#2d2016"/>
      <path id="Path_436" data-name="Path 436" d="M91.1,36.24h0" transform="translate(30.551 12.166)" fill="none"/>
      <path id="Path_437" data-name="Path 437" d="M68.06,17.618s6.678,0,10.364,3.9,5.836,4.888,5.836,4.888l8.013-3.032s0-6.784.28-8.013-2.07-3.205-2.511-3.552-.294-1.336-5.809-2.391S72.8,7.054,71.452,7.829,68.06,17.618,68.06,17.618Z" transform="translate(22.821 2.555)" fill="#37271c"/>
      <path id="Path_438" data-name="Path 438" d="M84.073,28.956s12.02,11.873,17.255,14.183,9.2,5.623,8.681,13.689c0,0,1.8-5.676,1.469-7.572a2.163,2.163,0,0,0,.828-2.2s.494.922,1.162-.735.881-2.137-.668-4.087c0,0,1.336-1.589,1.175-2.391l-.227-.788a3.1,3.1,0,0,0,1.763-2.818c0-2.017-4.247-5.075-4.247-5.075s4.741,1.042,4.567,4.835a4.648,4.648,0,0,0-1.923-6.05,16.361,16.361,0,0,0-3.152-6.838S110.383.442,87.585,0,61.93,20.716,61.93,20.716,77.569,14.172,84.073,28.956Z" transform="translate(20.764 0.005)" fill="#37271c"/>
      <path id="Path_439" data-name="Path 439" d="M91.072,53.33c-.2.361-.668,1.429-.895,1.776-.467.708-.975,1.536-1.482,2.444-3.245,2.938-6.958,5.168-8.895,5.529a20.327,20.327,0,0,1-8.521,0h0l-.588-.147h-.427c-.4-1.563-.614-2.671-.614-2.671h.093a21.155,21.155,0,0,0,8.681.08C81.189,59.794,86.825,56.295,91.072,53.33Z" transform="translate(23.355 17.9)" opacity="0.09"/>
      <path id="Path_440" data-name="Path 440" d="M152.3,94.642c-.494,9.095-5.342,41.4-5.85,44.593s-.494,5.476-4.608,6.971c-3.245,1.175-10.617-.12-16.761-1.1-1.643-.254-3.179-.494-4.541-.641-3.726-.441-12.02-.414-19.018-.441a98.556,98.556,0,0,1-10.684-.307c-2.992-.628-2.871-2.671-1.5-10.35.748-4.1.427-16.56,1.336-29.248a2.917,2.917,0,0,1,0-.321v-.454c0-.574.16-1.469.307-2.671h-.053c.908-9.7,2.671-19.085,6.317-24.547a20.54,20.54,0,0,1,4.207-4.567h0a29.782,29.782,0,0,1,9.95-5.048,48.466,48.466,0,0,1,10.551-1.937,30.877,30.877,0,0,1,14.611,2.284C150.965,73.1,152.728,86.842,152.3,94.642Z" transform="translate(29.65 21.635)" fill="#e5e5e4"/>
      <circle id="Ellipse_11" data-name="Ellipse 11" cx="1.269" cy="1.269" r="1.269" transform="translate(124.002 55.003)" fill="#fff"/>
      <rect id="Rectangle_63" data-name="Rectangle 63" width="0.427" height="1.99" transform="translate(125.057 56.913)" fill="#fff"/>
      <circle id="Ellipse_12" data-name="Ellipse 12" cx="2.123" cy="2.123" r="2.123" transform="translate(123.147 57.915)" fill="#fff"/>
      <path id="Path_441" data-name="Path 441" d="M216,143.8a3.272,3.272,0,0,0-1.416-4.1l-3.606-.561a22.7,22.7,0,0,0-6.33-2.391,30.448,30.448,0,0,0-6.517-.708A23.559,23.559,0,0,0,189,137.712l-.775.347a3.165,3.165,0,0,1-2.6,0,22.958,22.958,0,0,0-4.22-1.335,30.356,30.356,0,0,0-6.451-.721,23.559,23.559,0,0,0-9.135,1.669,18.7,18.7,0,0,0-2.858,1.509,3.272,3.272,0,0,1-3.512,0c-.374-.227-.761-.441-1.149-.641a21.928,21.928,0,0,0-7.466-2.31q.4-.708.721-1.336v-.12a8.774,8.774,0,0,0,.294-6.317,8.467,8.467,0,0,0-5.342-5.342,9.27,9.27,0,0,0-1.456-.361,3.018,3.018,0,0,1-1.336-.574,8.814,8.814,0,0,0-.908-.668,9.349,9.349,0,0,0-5.062-1.563,8.681,8.681,0,0,0-3.058.548,2.965,2.965,0,0,1-1.563.093,10.321,10.321,0,0,0-2.017-.2,8.774,8.774,0,0,0-3.325.641l-.668-.294a11.793,11.793,0,0,0-4.394-.8,13.048,13.048,0,0,0-5.008,1l-.508.227a9.829,9.829,0,0,0-1.2-.561,8.495,8.495,0,0,0-3.045-.574h-.107a7.681,7.681,0,0,0-1.336.12l-.08-.187a9.535,9.535,0,0,0-1.2-1.79,3.633,3.633,0,0,1-.641-1.1,9.344,9.344,0,0,0-.481-1.2,12.313,12.313,0,0,0-4.007-4.741,15.892,15.892,0,0,0-5.182-2.351,23.078,23.078,0,0,0-5.769-.654,28.3,28.3,0,0,0-7.741,1.08A36.513,36.513,0,0,0,73.824,115.6a34.532,34.532,0,0,0-4.754,4.434A25.094,25.094,0,0,0,65.53,125.2a14.891,14.891,0,0,0-1.75,6.771v1.149a3.272,3.272,0,0,1-3.312,3.593H28.042v.347a24.9,24.9,0,0,0-6.678-.881A22.7,22.7,0,0,0,10.8,138.634a19.592,19.592,0,0,0-7.933,7.345,20.834,20.834,0,0,0,0,21.061,19.659,19.659,0,0,0,7.813,7.2,22.436,22.436,0,0,0,10.484,2.484,27.966,27.966,0,0,0,6.811-.881v.334h93.486a20.781,20.781,0,0,0,11.846-3.045c.347-.227.654-.481.975-.735a19.923,19.923,0,0,0,2.885,1.83,23.532,23.532,0,0,0,21.1,0h0a3.326,3.326,0,0,1,2.992-.08,25.588,25.588,0,0,0,5.008,1.709,32.41,32.41,0,0,0,7.559.881A23.424,23.424,0,0,0,183,175.026c.574-.254,1.122-.534,1.656-.828a24.4,24.4,0,0,0,4.861,1.656,32.414,32.414,0,0,0,7.559.881,23.424,23.424,0,0,0,9.175-1.709,16.28,16.28,0,0,0,7.145-5.676,15,15,0,0,0,2.671-8.561,14.13,14.13,0,0,0-1.99-7.479,3.165,3.165,0,0,1-.187-2.871Z" transform="translate(-0.011 36.286)" fill="#7cb7c8"/>
      <path id="Path_442" data-name="Path 442" d="M216,143.6a3.259,3.259,0,0,0-1.416-4.087l-3.606-2.043a22.7,22.7,0,0,0-6.33-2.391,30.452,30.452,0,0,0-6.517-.708A23.559,23.559,0,0,0,189,136.046l-.775.347a3.219,3.219,0,0,1-2.6,0,22.955,22.955,0,0,0-4.22-1.336,30.355,30.355,0,0,0-6.517-.708,23.559,23.559,0,0,0-9.135,1.669,18.7,18.7,0,0,0-2.858,1.509,3.272,3.272,0,0,1-3.512,0c-.374-.227-.761-.441-1.149-.654a21.9,21.9,0,0,0-7.466-2.3q.4-.694.721-1.335v-.12a8.774,8.774,0,0,0,.294-6.317,8.467,8.467,0,0,0-5.342-5.409,9.27,9.27,0,0,0-1.456-.361,2.885,2.885,0,0,1-1.336-.588c-.294-.227-.588-.454-.908-.654a9.349,9.349,0,0,0-5.062-1.563,8.681,8.681,0,0,0-3.058.548,2.965,2.965,0,0,1-1.563.093,10.324,10.324,0,0,0-2.017-.2,8.775,8.775,0,0,0-3.325.641c-.214-.093-.427-.214-.668-.294a11.792,11.792,0,0,0-4.394-.8,13.048,13.048,0,0,0-5.008,1l-.507.227a9.832,9.832,0,0,0-1.2-.561,8.214,8.214,0,0,0-3.045-.574h-.04a7.682,7.682,0,0,0-1.336.12l-.08-.187a9.536,9.536,0,0,0-1.2-1.79,3.633,3.633,0,0,1-.641-1.1,9.345,9.345,0,0,0-.481-1.2,12.314,12.314,0,0,0-4.007-4.741,15.893,15.893,0,0,0-5.182-2.351,23.078,23.078,0,0,0-5.769-.654,28.3,28.3,0,0,0-7.741,1.08,36.513,36.513,0,0,0-12.586,6.385,34.54,34.54,0,0,0-4.754,4.434,25.1,25.1,0,0,0-3.539,5.168,14.891,14.891,0,0,0-1.75,6.771V131.4a3.272,3.272,0,0,1-3.312,3.593H28.042v.254a24.9,24.9,0,0,0-6.678-.881A22.9,22.9,0,0,0,10.8,136.807a19.712,19.712,0,0,0-7.933,7.359,20.834,20.834,0,0,0,0,21.061,19.659,19.659,0,0,0,7.813,7.412,22.437,22.437,0,0,0,10.484,2.471,27.936,27.936,0,0,0,6.811-.868v.334h93.486a20.781,20.781,0,0,0,11.846-3.045c.347-.227.654-.481.975-.735a19.926,19.926,0,0,0,2.885,1.83,23.652,23.652,0,0,0,21.1,0h0a3.325,3.325,0,0,1,2.992-.08,25.589,25.589,0,0,0,5.008,1.71,33.131,33.131,0,0,0,7.559.868,23.424,23.424,0,0,0,9.175-1.7c.574-.254,1.122-.534,1.656-.828a24.4,24.4,0,0,0,4.861,1.656,33.131,33.131,0,0,0,7.559.868,23.424,23.424,0,0,0,9.175-1.7,16.28,16.28,0,0,0,7.145-5.676,15,15,0,0,0,2.671-8.561,14.129,14.129,0,0,0-1.99-7.479,3.165,3.165,0,0,1-.187-2.871Z" transform="translate(-0.011 35.709)" fill="#82c7e0"/>
      <path id="Path_443" data-name="Path 443" d="M76.131,112.3a14.693,14.693,0,0,1,3.753.414,7.586,7.586,0,0,1,2.564,1.122,4.394,4.394,0,0,1,1.469,1.683,4.941,4.941,0,0,1,.454,2.137,7.492,7.492,0,0,1-.641,2.885,14.476,14.476,0,0,1-1.8,3.072,21.02,21.02,0,0,1-2.751,2.978,24.693,24.693,0,0,1-3.5,2.671,23.6,23.6,0,0,1-4.073,2.017,20.435,20.435,0,0,1-4.434,1.149,16.172,16.172,0,0,0-.841,2.5,9.937,9.937,0,0,0-.307,2.324,4.381,4.381,0,0,0,.16,1.215,9.76,9.76,0,0,0,.334,1h0l.227.561a1.549,1.549,0,0,1,.08.454.721.721,0,0,1-.267.641,1.536,1.536,0,0,1-.948.227,2.484,2.484,0,0,1-1.335-.414,3.727,3.727,0,0,1-1.055-1.042,5.529,5.529,0,0,1-.668-1.416,5.141,5.141,0,0,1-.24-1.509,9.923,9.923,0,0,1,.254-2.177,16.531,16.531,0,0,1,.681-2.351,4.367,4.367,0,0,1-1.162-.614,4.5,4.5,0,0,1-.841-.828,3.567,3.567,0,0,1-.507-.895,2.551,2.551,0,0,1-.174-.815,1.336,1.336,0,0,1,.24-.815.815.815,0,0,1,.694-.321.761.761,0,0,1,.735.334,2.4,2.4,0,0,1,.307.775,2.672,2.672,0,0,0,.134.387,3.184,3.184,0,0,0,.24.4,1.5,1.5,0,0,0,.4.347,1.817,1.817,0,0,0,.628.227q.507-1.229,1.122-2.444c.4-.8.815-1.576,1.229-2.324s.815-1.442,1.2-2.1l1.015-1.683.6-1.015a2.259,2.259,0,0,0,.227-.387v-.134a2.925,2.925,0,0,1,.093-.841c0-.214.307-.321.748-.321a2.23,2.23,0,0,1,.828.187,3.072,3.072,0,0,1,.815.507,2.751,2.751,0,0,1,.614.748,1.763,1.763,0,0,1,.24.895,3.339,3.339,0,0,1-.481,1.336q-.481.895-1.2,2.164l-.681,1.149q-.321.521-.641,1.082c-.227.374-.441.761-.654,1.175l-.668,1.416a16.828,16.828,0,0,0,2.992-1.482,25.119,25.119,0,0,0,2.8-2.15,28.418,28.418,0,0,0,2.5-2.4,19.5,19.5,0,0,0,1.99-2.551,14.116,14.116,0,0,0,1.336-2.484,5.956,5.956,0,0,0,.467-2.217,2.444,2.444,0,0,0-.895-1.963,4.447,4.447,0,0,0-2.911-.761,14.543,14.543,0,0,0-4.007.534,19.9,19.9,0,0,0-3.633,1.416,22.314,22.314,0,0,0-3.259,2.057,31.846,31.846,0,0,0-2.818,2.471,27.085,27.085,0,0,0-2.3,2.671q-.924,1.225-1.723,2.537a13.9,13.9,0,0,0-1.1,2.19,5.114,5.114,0,0,0-.374,1.616,1.028,1.028,0,0,0,.107.507.654.654,0,0,0,.267.24,1.162,1.162,0,0,0,.374.067h.868a.788.788,0,0,1,.4,0,.6.6,0,0,1,.267.214.761.761,0,0,1,.107.441.614.614,0,0,1-.187.4,1.7,1.7,0,0,1-.481.334,3.514,3.514,0,0,1-.721.24,3.647,3.647,0,0,1-.881.093,5.168,5.168,0,0,1-1.335-.174,3.192,3.192,0,0,1-1.242-.614,3.485,3.485,0,0,1-.908-1.162,4.167,4.167,0,0,1-.374-1.856,6.984,6.984,0,0,1,.895-3.179,17.174,17.174,0,0,1,2.431-3.512,26.8,26.8,0,0,1,3.673-3.419,29.059,29.059,0,0,1,4.608-2.938,28.751,28.751,0,0,1,5.249-2.057A20.326,20.326,0,0,1,76.131,112.3Z" transform="translate(17.996 37.685)" fill="#f9db7d"/>
      <path id="Path_444" data-name="Path 444" d="M81.1,125.754a.374.374,0,0,1,.347-.16,1.416,1.416,0,0,1,.507.093,1.109,1.109,0,0,1,.427.294.334.334,0,0,1,.107.361c-.147.334-.387.8-.721,1.416s-.694,1.336-1.135,1.99-.922,1.456-1.456,2.217a18.3,18.3,0,0,1-1.656,2.043,9,9,0,0,1-1.75,1.509,3.192,3.192,0,0,1-1.75.588,2.27,2.27,0,0,1-1.843-.828,3.272,3.272,0,0,1-.721-2.23,4.821,4.821,0,0,1,.227-1.335c.16-.508.347-1.068.588-1.669s.508-1.215.8-1.856.588-1.255.855-1.843l.935-2.017a4.074,4.074,0,0,0,.387-1.109c0-.24.147-.361.454-.334a2.538,2.538,0,0,1,.988.334,4.14,4.14,0,0,1,1,.761,1.336,1.336,0,0,1,.454.975,1.51,1.51,0,0,1-.12.454,2.4,2.4,0,0,1-.294.735l-.4.908-.454.962c-.24.521-.507,1.068-.788,1.656s-.534,1.162-.761,1.709-.427,1.042-.588,1.5a4.007,4.007,0,0,0-.227,1.082v.2a1.79,1.79,0,0,0,1.122-.534,9.736,9.736,0,0,0,1.336-1.335,20.356,20.356,0,0,0,1.336-1.8c.441-.668.841-1.335,1.215-1.936s.694-1.2.962-1.709.467-.881.588-1.122Zm-3.78-4.314a.654.654,0,0,1-.6-.307,1.336,1.336,0,0,1-.187-.775,4.115,4.115,0,0,1,.147-.988,5.623,5.623,0,0,1,.427-1.055,3.74,3.74,0,0,1,.588-.841.922.922,0,0,1,.668-.334,2.818,2.818,0,0,1,.828.12,2.217,2.217,0,0,1,.708.361,1.857,1.857,0,0,1,.481.588,1.79,1.79,0,0,1,.187.815,1.669,1.669,0,0,1-.24.828,2.845,2.845,0,0,1-.668.788,3.806,3.806,0,0,1-1.028.574,3.5,3.5,0,0,1-1.309.227Z" transform="translate(23.961 39.309)" fill="#f9db7d"/>
      <path id="Path_445" data-name="Path 445" d="M91.418,124.474a1.229,1.229,0,0,1,.548-.534.775.775,0,0,1,.574,0,.7.7,0,0,1,.361.387,1,1,0,0,1-.093.735c-.147.294-.374.748-.654,1.336s-.628,1.255-1.015,1.977a22.2,22.2,0,0,1-1.336,2.217,19.058,19.058,0,0,1-1.456,2.043,8.28,8.28,0,0,1-1.549,1.522,2.537,2.537,0,0,1-1.5.588,2.31,2.31,0,0,1-1.843-.828,3.272,3.272,0,0,1-.721-2.23,4.715,4.715,0,0,1,.187-1.162c.134-.467.307-.975.507-1.509s.454-1.108.721-1.709l.775-1.709-1.563,1.87c-.561.668-1.082,1.336-1.576,1.963s-.921,1.242-1.336,1.816a13.688,13.688,0,0,0-.841,1.416v.521a.494.494,0,0,1,0,.16.656.656,0,0,0,0,.16h0a2.435,2.435,0,0,0,.12.494,1,1,0,0,1,0,.4.4.4,0,0,1-.227.267,1.016,1.016,0,0,1-.548.107,2.03,2.03,0,0,1-.881-.214,2.777,2.777,0,0,1-.828-.614,3.579,3.579,0,0,1-.628-.935,3,3,0,0,1-.24-1.229,5.1,5.1,0,0,1,.174-1.336,10.578,10.578,0,0,1,.481-1.429c.2-.494.414-.988.668-1.5l.761-1.5c.427-.828.8-1.6,1.135-2.31a4.434,4.434,0,0,0,.494-1.763c0-.24.174-.374.494-.387a2.5,2.5,0,0,1,1.122.254,3.62,3.62,0,0,1,1.109.775,1.683,1.683,0,0,1,.494,1.2,2.351,2.351,0,0,1-.174.788,10.194,10.194,0,0,1-.441,1.068q.708-.841,1.4-1.643a17.218,17.218,0,0,1,1.336-1.416c.454-.414.761-.748,1.055-1a1.336,1.336,0,0,1,.654-.387h.147a.414.414,0,0,1,.174,0,2.578,2.578,0,0,1,.614.334,4.194,4.194,0,0,1,.641.561,3.873,3.873,0,0,1,.481.735,1.763,1.763,0,0,1,.187.8,3.433,3.433,0,0,1-.374,1.149c-.24.548-.548,1.189-.895,1.91l-.8,1.669c-.28.574-.534,1.135-.761,1.669s-.414,1.042-.561,1.5a4,4,0,0,0-.227,1.108v.174a1.336,1.336,0,0,0,.815-.467,10.161,10.161,0,0,0,1.042-1.255c.361-.507.735-1.082,1.122-1.709s.735-1.242,1.055-1.87.641-1.189.895-1.736.467-.962.6-1.336Z" transform="translate(25.613 40.669)" fill="#f9db7d"/>
      <path id="Path_446" data-name="Path 446" d="M85.763,130.3a6.584,6.584,0,0,1,.334-2.03,10.778,10.778,0,0,1,.895-2.07,12.086,12.086,0,0,1,3.1-3.552,8.682,8.682,0,0,1,1.923-1.1A5.021,5.021,0,0,1,94,121.14a3.86,3.86,0,0,1,1.456.24,2.9,2.9,0,0,1,.988.614,2.484,2.484,0,0,1,.588.828,3.339,3.339,0,0,1,.294.868,3.085,3.085,0,0,1,0,.761,1.5,1.5,0,0,1-.093.481h0a.254.254,0,0,1-.28.16,1.3,1.3,0,0,1-.815-.294c-.12-.08-.174-.147-.16-.187a1.49,1.49,0,0,0,0-.254.882.882,0,0,0-.134-.414,1.015,1.015,0,0,0-.4-.387,1.576,1.576,0,0,0-.815-.174,1.95,1.95,0,0,0-1.162.481,7.654,7.654,0,0,0-1.242,1.229,14.885,14.885,0,0,0-1.175,1.723,17.83,17.83,0,0,0-.988,1.95,13.621,13.621,0,0,0-.668,1.91,5.464,5.464,0,0,0-.267,1.576c0,.534.16.815.481.815a1.79,1.79,0,0,0,1.149-.508,6.344,6.344,0,0,0,1.149-1.269,12.154,12.154,0,0,0,1.028-1.7q.481-.921.841-1.763c.24-.561.427-1.055.561-1.469a4.074,4.074,0,0,0,.214-.841.24.24,0,0,1,.214-.254,1.335,1.335,0,0,1,.574,0,6.077,6.077,0,0,1,.735.254,4.4,4.4,0,0,1,.748.387,2.857,2.857,0,0,1,.561.454.681.681,0,0,1,.227.414,2.39,2.39,0,0,1-.24.815c-.16.387-.347.815-.561,1.336s-.307.681-.454,1.042-.307.721-.441,1.068a8.94,8.94,0,0,0-.307.975,3.058,3.058,0,0,0-.134.748v.107c.214,0,.481-.174.8-.534A13.714,13.714,0,0,0,97.329,131c.374-.561.748-1.162,1.135-1.83s.748-1.336,1.1-1.937.641-1.189.895-1.7l.561-1.122a.361.361,0,0,1,.361-.187,1.442,1.442,0,0,1,.507.107,1.135,1.135,0,0,1,.414.28.334.334,0,0,1,.107.361c-.134.307-.361.761-.668,1.336s-.668,1.336-1.082,1.99-.855,1.469-1.336,2.23a24.608,24.608,0,0,1-1.456,2.083,11.447,11.447,0,0,1-1.429,1.523,2.1,2.1,0,0,1-1.335.6,1.963,1.963,0,0,1-1.149-.334,4.248,4.248,0,0,1-.815-.708,3.66,3.66,0,0,1-.681-1.068c-.187.214-.387.441-.641.681a6.424,6.424,0,0,1-.775.681,5.007,5.007,0,0,1-.881.534,2.1,2.1,0,0,1-.908.214,2.938,2.938,0,0,1-1.549-.4,3.218,3.218,0,0,1-1.122-1.042,4.9,4.9,0,0,1-.694-1.429,5.53,5.53,0,0,1-.12-1.563Z" transform="translate(28.757 40.651)" fill="#f9db7d"/>
      <path id="Path_447" data-name="Path 447" d="M111.62,124.452a1.082,1.082,0,0,1,.534-.534.748.748,0,0,1,.561,0,.561.561,0,0,1,.361.387,1.042,1.042,0,0,1-.08.735,8.829,8.829,0,0,1-1.189,1.937,24.048,24.048,0,0,1-1.8,2.017c-.681.681-1.416,1.335-2.23,2.03s-1.643,1.336-2.5,2.043c-.668,1.336-1.336,2.671-2.15,4.007a39.341,39.341,0,0,1-2.3,3.606,15.48,15.48,0,0,1-2.27,2.578,3.232,3.232,0,0,1-2.083.988,4.78,4.78,0,0,1-1.7-.254,3.032,3.032,0,0,1-1.082-.654,2.364,2.364,0,0,1-.708-1.6,2.4,2.4,0,0,1,.574-1.429,10.414,10.414,0,0,1,1.576-1.643c.668-.588,1.429-1.2,2.3-1.843s1.8-1.336,2.778-2.017l.441-.815.28-.454a2.191,2.191,0,0,0,.16-.294l.16-.294a3.245,3.245,0,0,0,.214-.467c.093-.187.2-.467.361-.815-.347.427-.694.828-1.028,1.189s-.668.695-.975.975a4.952,4.952,0,0,1-.841.668,1.335,1.335,0,0,1-.668.254,1.629,1.629,0,0,1-.988-.334,3.619,3.619,0,0,1-.828-.8,3.779,3.779,0,0,1-.561-1.015,2.671,2.671,0,0,1-.267-.962,5.236,5.236,0,0,1,.187-1.336,12.02,12.02,0,0,1,.481-1.429q.321-.721.681-1.482l.761-1.469c.2-.387.387-.788.588-1.162s.374-.761.521-1.109a5.879,5.879,0,0,0,.361-.975,2.671,2.671,0,0,0,.147-.761c0-.227.16-.347.494-.347a2.8,2.8,0,0,1,1.108.254,3.352,3.352,0,0,1,1.108.735,1.563,1.563,0,0,1,.508,1.162,2.672,2.672,0,0,1-.174.788c-.12.321-.267.694-.454,1.1s-.4.855-.641,1.336-.494.962-.748,1.456l-.908,1.736c-.294.561-.548,1.068-.775,1.523s-.4.828-.534,1.108-.174.414-.12.414a1.722,1.722,0,0,0,.588-.441,14.3,14.3,0,0,0,1-1.149c.374-.467.8-.988,1.255-1.589s.881-1.175,1.336-1.776l1.215-1.683.921-1.336.748-1.936a4.982,4.982,0,0,0,.28-.815,1.616,1.616,0,0,1,.24-1,.881.881,0,0,1,.708-.307,1.336,1.336,0,0,1,.721.254,5.583,5.583,0,0,1,.748.654,4.127,4.127,0,0,1,.588.841,1.95,1.95,0,0,1,.24.881,4.179,4.179,0,0,1-.174.841c-.12.387-.267.855-.467,1.416s-.427,1.162-.694,1.83-.548,1.336-.841,2.057a31.346,31.346,0,0,0,2.938-2.671,12.021,12.021,0,0,0,1.977-2.751ZM94.339,142.321a2.257,2.257,0,0,0,1.336-.467,8.134,8.134,0,0,0,1.336-1.242,16.987,16.987,0,0,0,1.336-1.843,25.914,25.914,0,0,0,1.336-2.23q-1.2.908-2.244,1.723c-.708.548-1.336,1.042-1.843,1.509a9.612,9.612,0,0,0-1.229,1.242,1.6,1.6,0,0,0-.454.935C94.058,142.228,94.165,142.321,94.339,142.321Z" transform="translate(31.186 40.651)" fill="#f9db7d"/>
      <path id="Path_448" data-name="Path 448" d="M22.577,145.04h6.931v10.016a16.027,16.027,0,0,1-4.875,2.244,20.032,20.032,0,0,1-5.449.775,14.37,14.37,0,0,1-6.8-1.576A11.726,11.726,0,0,1,7.659,152.1a12.9,12.9,0,0,1,0-12.834,11.793,11.793,0,0,1,4.781-4.394,14.825,14.825,0,0,1,6.931-1.576,15.639,15.639,0,0,1,6.237,1.175,11.713,11.713,0,0,1,4.594,3.392l-5.115,4.5a6.784,6.784,0,0,0-5.342-2.671,5.636,5.636,0,0,0-4.194,1.589,6.8,6.8,0,0,0,0,8.627,5.342,5.342,0,0,0,4.113,1.683,7.493,7.493,0,0,0,2.911-.574Z" transform="translate(1.982 44.731)" fill="#fff"/>
      <path id="Path_449" data-name="Path 449" d="M26.91,133.71h8.013v23.679H26.91Z" transform="translate(9.015 44.869)" fill="#fff"/>
      <path id="Path_450" data-name="Path 450" d="M46.7,151.46H44.533v5.956H36.52V133.711H47.925a14,14,0,0,1,5.716,1.082,8.761,8.761,0,0,1,3.926,12.287,8.24,8.24,0,0,1-3.285,3.045l4.968,7.305H50.73Zm3.179-10.844a3.552,3.552,0,0,0-2.431-.721H44.533v5.542h2.911a3.552,3.552,0,0,0,2.431-.721,2.564,2.564,0,0,0,.815-2.043,2.671,2.671,0,0,0-.815-2.083Z" transform="translate(12.239 44.868)" fill="#fff"/>
      <path id="Path_451" data-name="Path 451" d="M107.082,156.484a12.153,12.153,0,0,1,0-21.6,15.653,15.653,0,0,1,13.742,0,12.127,12.127,0,0,1,4.781,4.421,12.661,12.661,0,0,1,0,12.754,12.126,12.126,0,0,1-4.781,4.421,15.652,15.652,0,0,1-13.742,0Zm9.562-5.6a5.342,5.342,0,0,0,1.923-2.07,7.279,7.279,0,0,0,0-6.264,5.209,5.209,0,0,0-1.923-2.057,5.342,5.342,0,0,0-5.342,0,5.182,5.182,0,0,0-1.91,2.057,7.278,7.278,0,0,0,0,6.264,5.13,5.13,0,0,0,7.252,2.07Z" transform="translate(33.707 44.731)" fill="#fff"/>
      <path id="Path_452" data-name="Path 452" d="M127,157.408a15.707,15.707,0,0,1-4.594-1.776l2.578-5.823a16.5,16.5,0,0,0,3.793,1.576,15.011,15.011,0,0,0,4.007.588,6.2,6.2,0,0,0,2.364-.32,1.028,1.028,0,0,0,.721-.962c0-.507-.321-.868-.935-1.122a19.275,19.275,0,0,0-3.058-.815,35.056,35.056,0,0,1-4.567-1.229,7.813,7.813,0,0,1-3.192-2.164,5.943,5.943,0,0,1-1.336-4.087,6.985,6.985,0,0,1,1.255-4.007,8.227,8.227,0,0,1,3.739-2.871,15.358,15.358,0,0,1,6.037-1.055,22.154,22.154,0,0,1,4.794.521,15.157,15.157,0,0,1,4.14,1.549l-2.4,5.783a14.69,14.69,0,0,0-6.6-1.763c-2.057,0-3.085.494-3.085,1.5,0,.467.307.828.922,1.068a22.369,22.369,0,0,0,3,.761,29.631,29.631,0,0,1,4.567,1.162,8.013,8.013,0,0,1,3.232,2.15,5.729,5.729,0,0,1,1.335,4.007,6.944,6.944,0,0,1-1.255,4.007,8.414,8.414,0,0,1-3.739,2.871,15.346,15.346,0,0,1-6.037,1.068A25.456,25.456,0,0,1,127,157.408Z" transform="translate(41.056 44.743)" fill="#fff"/>
      <path id="Path_453" data-name="Path 453" d="M144.4,157.407a15.759,15.759,0,0,1-4.581-1.776l2.578-5.823a16.639,16.639,0,0,0,3.779,1.576,15.184,15.184,0,0,0,4.007.588,6.2,6.2,0,0,0,2.364-.321,1.028,1.028,0,0,0,.721-.962c0-.507-.321-.868-.935-1.122a19.7,19.7,0,0,0-3.058-.815,35.926,35.926,0,0,1-4.581-1.229,7.866,7.866,0,0,1-3.179-2.164,5.943,5.943,0,0,1-1.336-4.087,6.985,6.985,0,0,1,1.255-4.007,8.227,8.227,0,0,1,3.739-2.871,15.36,15.36,0,0,1,6.037-1.055,21.941,21.941,0,0,1,4.781.521,15.249,15.249,0,0,1,4.153,1.549l-2.4,5.783a14.69,14.69,0,0,0-6.6-1.763c-2.057,0-3.085.494-3.085,1.5,0,.467.307.828.922,1.068a21.373,21.373,0,0,0,3,.761,30.443,30.443,0,0,1,4.567,1.162,8.013,8.013,0,0,1,3.232,2.15,5.729,5.729,0,0,1,1.336,4.007,6.945,6.945,0,0,1-1.255,4.007,8.414,8.414,0,0,1-3.739,2.871,15.346,15.346,0,0,1-6.037,1.068A25.668,25.668,0,0,1,144.4,157.407Z" transform="translate(46.898 44.743)" fill="#fff"/>
      <path id="Path_454" data-name="Path 454" d="M99.881,145.012a6.05,6.05,0,0,0,2.457-2.137,5.128,5.128,0,0,0,.775-2.217,4.38,4.38,0,0,1-2.591.975,6.424,6.424,0,0,1-2.27-.361,5.09,5.09,0,0,1-1.616-.988,4.006,4.006,0,0,1-.935-1.429,3.845,3.845,0,0,1-.254-1.336,4.006,4.006,0,0,1,.895-2.391,10.094,10.094,0,0,1,.975-1.1,18.482,18.482,0,0,0-3.726-.334H80.93v23.679H94.285a13.475,13.475,0,0,0,7.439-1.7,5.5,5.5,0,0,0,2.578-4.835,5.649,5.649,0,0,0-1.162-3.579A7,7,0,0,0,99.881,145.012Zm-11.1-5.716h3.726q2.671,0,2.671,1.763c0,1.162-.868,1.75-2.671,1.75H88.783Zm4.808,12.514H88.783V148.1h4.808c1.763,0,2.671.614,2.671,1.856S95.354,151.81,93.591,151.81Z" transform="translate(27.139 44.865)" fill="#fff"/>
      <path id="Path_455" data-name="Path 455" d="M64.166,135.663a4.1,4.1,0,0,1-1.656-.628,5.342,5.342,0,0,1-1.336-1.336H56.18v23.679h18.7V151.2H64.193Z" transform="translate(18.835 44.865)" fill="#fff"/>
      <path id="Path_456" data-name="Path 456" d="M216,143.8a3.272,3.272,0,0,0-1.416-4.1l-3.606-.561a22.7,22.7,0,0,0-6.33-2.391,30.448,30.448,0,0,0-6.517-.708A23.559,23.559,0,0,0,189,137.712l-.775.347a3.165,3.165,0,0,1-2.6,0,22.958,22.958,0,0,0-4.22-1.335,30.356,30.356,0,0,0-6.451-.721,23.559,23.559,0,0,0-9.135,1.669,18.7,18.7,0,0,0-2.858,1.509,3.272,3.272,0,0,1-3.512,0c-.374-.227-.761-.441-1.149-.641a21.928,21.928,0,0,0-7.466-2.31q.4-.708.721-1.336v-.12a8.774,8.774,0,0,0,.294-6.317,8.467,8.467,0,0,0-5.342-5.342,9.27,9.27,0,0,0-1.456-.361,3.018,3.018,0,0,1-1.336-.574,8.814,8.814,0,0,0-.908-.668,9.349,9.349,0,0,0-5.062-1.563,8.681,8.681,0,0,0-3.058.548,2.965,2.965,0,0,1-1.563.093,10.321,10.321,0,0,0-2.017-.2,8.774,8.774,0,0,0-3.325.641l-.668-.294a11.793,11.793,0,0,0-4.394-.8,13.048,13.048,0,0,0-5.008,1l-.508.227a9.829,9.829,0,0,0-1.2-.561,8.495,8.495,0,0,0-3.045-.574h-.107a7.681,7.681,0,0,0-1.336.12l-.08-.187a9.535,9.535,0,0,0-1.2-1.79,3.633,3.633,0,0,1-.641-1.1,9.344,9.344,0,0,0-.481-1.2,12.313,12.313,0,0,0-4.007-4.741,15.892,15.892,0,0,0-5.182-2.351,23.078,23.078,0,0,0-5.769-.654,28.3,28.3,0,0,0-7.741,1.08A36.513,36.513,0,0,0,73.824,115.6a34.532,34.532,0,0,0-4.754,4.434A25.094,25.094,0,0,0,65.53,125.2a14.891,14.891,0,0,0-1.75,6.771v1.149a3.272,3.272,0,0,1-3.312,3.593H28.042v.347a24.9,24.9,0,0,0-6.678-.881A22.7,22.7,0,0,0,10.8,138.634a19.592,19.592,0,0,0-7.933,7.345,20.834,20.834,0,0,0,0,21.061,19.659,19.659,0,0,0,7.813,7.2,22.436,22.436,0,0,0,10.484,2.484,27.966,27.966,0,0,0,6.811-.881v.334h93.486a20.781,20.781,0,0,0,11.846-3.045c.347-.227.654-.481.975-.735a19.923,19.923,0,0,0,2.885,1.83,23.532,23.532,0,0,0,21.1,0h0a3.326,3.326,0,0,1,2.992-.08,25.588,25.588,0,0,0,5.008,1.709,32.41,32.41,0,0,0,7.559.881A23.424,23.424,0,0,0,183,175.026c.574-.254,1.122-.534,1.656-.828a24.4,24.4,0,0,0,4.861,1.656,32.414,32.414,0,0,0,7.559.881,23.424,23.424,0,0,0,9.175-1.709,16.28,16.28,0,0,0,7.145-5.676,15,15,0,0,0,2.671-8.561,14.13,14.13,0,0,0-1.99-7.479,3.165,3.165,0,0,1-.187-2.871Z" transform="translate(-0.011 36.286)" fill="#63a9d3"/>
      <path id="Path_457" data-name="Path 457" d="M216,143.6a3.259,3.259,0,0,0-1.416-4.087l-3.606-2.043a22.7,22.7,0,0,0-6.33-2.391,30.452,30.452,0,0,0-6.517-.708A23.559,23.559,0,0,0,189,136.046l-.775.347a3.219,3.219,0,0,1-2.6,0,22.955,22.955,0,0,0-4.22-1.336,30.355,30.355,0,0,0-6.517-.708,23.559,23.559,0,0,0-9.135,1.669,18.7,18.7,0,0,0-2.858,1.509,3.272,3.272,0,0,1-3.512,0c-.374-.227-.761-.441-1.149-.654a21.9,21.9,0,0,0-7.466-2.3q.4-.694.721-1.335v-.12a8.774,8.774,0,0,0,.294-6.317,8.467,8.467,0,0,0-5.342-5.409,9.27,9.27,0,0,0-1.456-.361,2.885,2.885,0,0,1-1.336-.588c-.294-.227-.588-.454-.908-.654a9.349,9.349,0,0,0-5.062-1.563,8.681,8.681,0,0,0-3.058.548,2.965,2.965,0,0,1-1.563.093,10.324,10.324,0,0,0-2.017-.2,8.775,8.775,0,0,0-3.325.641c-.214-.093-.427-.214-.668-.294a11.792,11.792,0,0,0-4.394-.8,13.048,13.048,0,0,0-5.008,1l-.507.227a9.832,9.832,0,0,0-1.2-.561,8.214,8.214,0,0,0-3.045-.574h-.04a7.682,7.682,0,0,0-1.336.12l-.08-.187a9.536,9.536,0,0,0-1.2-1.79,3.633,3.633,0,0,1-.641-1.1,9.345,9.345,0,0,0-.481-1.2,12.314,12.314,0,0,0-4.007-4.741,15.893,15.893,0,0,0-5.182-2.351,23.078,23.078,0,0,0-5.769-.654,28.3,28.3,0,0,0-7.741,1.08,36.513,36.513,0,0,0-12.586,6.385,34.54,34.54,0,0,0-4.754,4.434,25.1,25.1,0,0,0-3.539,5.168,14.891,14.891,0,0,0-1.75,6.771V131.4a3.272,3.272,0,0,1-3.312,3.593H28.042v.254a24.9,24.9,0,0,0-6.678-.881A22.9,22.9,0,0,0,10.8,136.807a19.712,19.712,0,0,0-7.933,7.359,20.834,20.834,0,0,0,0,21.061,19.659,19.659,0,0,0,7.813,7.412,22.437,22.437,0,0,0,10.484,2.471,27.936,27.936,0,0,0,6.811-.868v.334h93.486a20.781,20.781,0,0,0,11.846-3.045c.347-.227.654-.481.975-.735a19.926,19.926,0,0,0,2.885,1.83,23.652,23.652,0,0,0,21.1,0h0a3.325,3.325,0,0,1,2.992-.08,25.589,25.589,0,0,0,5.008,1.71,33.131,33.131,0,0,0,7.559.868,23.424,23.424,0,0,0,9.175-1.7c.574-.254,1.122-.534,1.656-.828a24.4,24.4,0,0,0,4.861,1.656,33.131,33.131,0,0,0,7.559.868,23.424,23.424,0,0,0,9.175-1.7,16.28,16.28,0,0,0,7.145-5.676,15,15,0,0,0,2.671-8.561,14.129,14.129,0,0,0-1.99-7.479,3.165,3.165,0,0,1-.187-2.871Z" transform="translate(-0.011 35.709)" fill="#99cef6"/>
      <path id="Path_458" data-name="Path 458" d="M76.131,112.3a14.693,14.693,0,0,1,3.753.414,7.586,7.586,0,0,1,2.564,1.122,4.394,4.394,0,0,1,1.469,1.683,4.941,4.941,0,0,1,.454,2.137,7.492,7.492,0,0,1-.641,2.885,14.476,14.476,0,0,1-1.8,3.072,21.02,21.02,0,0,1-2.751,2.978,24.693,24.693,0,0,1-3.5,2.671,23.6,23.6,0,0,1-4.073,2.017,20.435,20.435,0,0,1-4.434,1.149,16.172,16.172,0,0,0-.841,2.5,9.937,9.937,0,0,0-.307,2.324,4.381,4.381,0,0,0,.16,1.215,9.76,9.76,0,0,0,.334,1h0l.227.561a1.549,1.549,0,0,1,.08.454.721.721,0,0,1-.267.641,1.536,1.536,0,0,1-.948.227,2.484,2.484,0,0,1-1.335-.414,3.727,3.727,0,0,1-1.055-1.042,5.529,5.529,0,0,1-.668-1.416,5.141,5.141,0,0,1-.24-1.509,9.923,9.923,0,0,1,.254-2.177,16.531,16.531,0,0,1,.681-2.351,4.367,4.367,0,0,1-1.162-.614,4.5,4.5,0,0,1-.841-.828,3.567,3.567,0,0,1-.507-.895,2.551,2.551,0,0,1-.174-.815,1.336,1.336,0,0,1,.24-.815.815.815,0,0,1,.694-.321.761.761,0,0,1,.735.334,2.4,2.4,0,0,1,.307.775,2.672,2.672,0,0,0,.134.387,3.184,3.184,0,0,0,.24.4,1.5,1.5,0,0,0,.4.347,1.817,1.817,0,0,0,.628.227q.507-1.229,1.122-2.444c.4-.8.815-1.576,1.229-2.324s.815-1.442,1.2-2.1l1.015-1.683.6-1.015a2.259,2.259,0,0,0,.227-.387v-.134a2.925,2.925,0,0,1,.093-.841c0-.214.307-.321.748-.321a2.23,2.23,0,0,1,.828.187,3.072,3.072,0,0,1,.815.507,2.751,2.751,0,0,1,.614.748,1.763,1.763,0,0,1,.24.895,3.339,3.339,0,0,1-.481,1.336q-.481.895-1.2,2.164l-.681,1.149q-.321.521-.641,1.082c-.227.374-.441.761-.654,1.175l-.668,1.416a16.828,16.828,0,0,0,2.992-1.482,25.119,25.119,0,0,0,2.8-2.15,28.418,28.418,0,0,0,2.5-2.4,19.5,19.5,0,0,0,1.99-2.551,14.116,14.116,0,0,0,1.336-2.484,5.956,5.956,0,0,0,.467-2.217,2.444,2.444,0,0,0-.895-1.963,4.447,4.447,0,0,0-2.911-.761,14.543,14.543,0,0,0-4.007.534,19.9,19.9,0,0,0-3.633,1.416,22.314,22.314,0,0,0-3.259,2.057,31.846,31.846,0,0,0-2.818,2.471,27.085,27.085,0,0,0-2.3,2.671q-.924,1.225-1.723,2.537a13.9,13.9,0,0,0-1.1,2.19,5.114,5.114,0,0,0-.374,1.616,1.028,1.028,0,0,0,.107.507.654.654,0,0,0,.267.24,1.162,1.162,0,0,0,.374.067h.868a.788.788,0,0,1,.4,0,.6.6,0,0,1,.267.214.761.761,0,0,1,.107.441.614.614,0,0,1-.187.4,1.7,1.7,0,0,1-.481.334,3.514,3.514,0,0,1-.721.24,3.647,3.647,0,0,1-.881.093,5.168,5.168,0,0,1-1.335-.174,3.192,3.192,0,0,1-1.242-.614,3.485,3.485,0,0,1-.908-1.162,4.167,4.167,0,0,1-.374-1.856,6.984,6.984,0,0,1,.895-3.179,17.174,17.174,0,0,1,2.431-3.512,26.8,26.8,0,0,1,3.673-3.419,29.059,29.059,0,0,1,4.608-2.938,28.751,28.751,0,0,1,5.249-2.057A20.326,20.326,0,0,1,76.131,112.3Z" transform="translate(17.996 37.685)" fill="#f9db7d"/>
      <path id="Path_459" data-name="Path 459" d="M81.1,125.754a.374.374,0,0,1,.347-.16,1.416,1.416,0,0,1,.507.093,1.109,1.109,0,0,1,.427.294.334.334,0,0,1,.107.361c-.147.334-.387.8-.721,1.416s-.694,1.336-1.135,1.99-.922,1.456-1.456,2.217a18.3,18.3,0,0,1-1.656,2.043,9,9,0,0,1-1.75,1.509,3.192,3.192,0,0,1-1.75.588,2.27,2.27,0,0,1-1.843-.828,3.272,3.272,0,0,1-.721-2.23,4.821,4.821,0,0,1,.227-1.335c.16-.508.347-1.068.588-1.669s.508-1.215.8-1.856.588-1.255.855-1.843l.935-2.017a4.074,4.074,0,0,0,.387-1.109c0-.24.147-.361.454-.334a2.538,2.538,0,0,1,.988.334,4.14,4.14,0,0,1,1,.761,1.336,1.336,0,0,1,.454.975,1.51,1.51,0,0,1-.12.454,2.4,2.4,0,0,1-.294.735l-.4.908-.454.962c-.24.521-.507,1.068-.788,1.656s-.534,1.162-.761,1.709-.427,1.042-.588,1.5a4.007,4.007,0,0,0-.227,1.082v.2a1.79,1.79,0,0,0,1.122-.534,9.736,9.736,0,0,0,1.336-1.335,20.356,20.356,0,0,0,1.336-1.8c.441-.668.841-1.335,1.215-1.936s.694-1.2.962-1.709.467-.881.588-1.122Zm-3.78-4.314a.654.654,0,0,1-.6-.307,1.336,1.336,0,0,1-.187-.775,4.115,4.115,0,0,1,.147-.988,5.623,5.623,0,0,1,.427-1.055,3.74,3.74,0,0,1,.588-.841.922.922,0,0,1,.668-.334,2.818,2.818,0,0,1,.828.12,2.217,2.217,0,0,1,.708.361,1.857,1.857,0,0,1,.481.588,1.79,1.79,0,0,1,.187.815,1.669,1.669,0,0,1-.24.828,2.845,2.845,0,0,1-.668.788,3.806,3.806,0,0,1-1.028.574,3.5,3.5,0,0,1-1.309.227Z" transform="translate(23.961 39.309)" fill="#f9db7d"/>
      <path id="Path_460" data-name="Path 460" d="M91.418,124.474a1.229,1.229,0,0,1,.548-.534.775.775,0,0,1,.574,0,.7.7,0,0,1,.361.387,1,1,0,0,1-.093.735c-.147.294-.374.748-.654,1.336s-.628,1.255-1.015,1.977a22.2,22.2,0,0,1-1.336,2.217,19.058,19.058,0,0,1-1.456,2.043,8.28,8.28,0,0,1-1.549,1.522,2.537,2.537,0,0,1-1.5.588,2.31,2.31,0,0,1-1.843-.828,3.272,3.272,0,0,1-.721-2.23,4.715,4.715,0,0,1,.187-1.162c.134-.467.307-.975.507-1.509s.454-1.108.721-1.709l.775-1.709-1.563,1.87c-.561.668-1.082,1.336-1.576,1.963s-.921,1.242-1.336,1.816a13.688,13.688,0,0,0-.841,1.416v.521a.494.494,0,0,1,0,.16.656.656,0,0,0,0,.16h0a2.435,2.435,0,0,0,.12.494,1,1,0,0,1,0,.4.4.4,0,0,1-.227.267,1.016,1.016,0,0,1-.548.107,2.03,2.03,0,0,1-.881-.214,2.777,2.777,0,0,1-.828-.614,3.579,3.579,0,0,1-.628-.935,3,3,0,0,1-.24-1.229,5.1,5.1,0,0,1,.174-1.336,10.578,10.578,0,0,1,.481-1.429c.2-.494.414-.988.668-1.5l.761-1.5c.427-.828.8-1.6,1.135-2.31a4.434,4.434,0,0,0,.494-1.763c0-.24.174-.374.494-.387a2.5,2.5,0,0,1,1.122.254,3.62,3.62,0,0,1,1.109.775,1.683,1.683,0,0,1,.494,1.2,2.351,2.351,0,0,1-.174.788,10.194,10.194,0,0,1-.441,1.068q.708-.841,1.4-1.643a17.218,17.218,0,0,1,1.336-1.416c.454-.414.761-.748,1.055-1a1.336,1.336,0,0,1,.654-.387h.147a.414.414,0,0,1,.174,0,2.578,2.578,0,0,1,.614.334,4.194,4.194,0,0,1,.641.561,3.873,3.873,0,0,1,.481.735,1.763,1.763,0,0,1,.187.8,3.433,3.433,0,0,1-.374,1.149c-.24.548-.548,1.189-.895,1.91l-.8,1.669c-.28.574-.534,1.135-.761,1.669s-.414,1.042-.561,1.5a4,4,0,0,0-.227,1.108v.174a1.336,1.336,0,0,0,.815-.467,10.161,10.161,0,0,0,1.042-1.255c.361-.507.735-1.082,1.122-1.709s.735-1.242,1.055-1.87.641-1.189.895-1.736.467-.962.6-1.336Z" transform="translate(25.613 40.669)" fill="#f9db7d"/>
      <path id="Path_461" data-name="Path 461" d="M85.763,130.3a6.584,6.584,0,0,1,.334-2.03,10.778,10.778,0,0,1,.895-2.07,12.086,12.086,0,0,1,3.1-3.552,8.682,8.682,0,0,1,1.923-1.1A5.021,5.021,0,0,1,94,121.14a3.86,3.86,0,0,1,1.456.24,2.9,2.9,0,0,1,.988.614,2.484,2.484,0,0,1,.588.828,3.339,3.339,0,0,1,.294.868,3.085,3.085,0,0,1,0,.761,1.5,1.5,0,0,1-.093.481h0a.254.254,0,0,1-.28.16,1.3,1.3,0,0,1-.815-.294c-.12-.08-.174-.147-.16-.187a1.49,1.49,0,0,0,0-.254.882.882,0,0,0-.134-.414,1.015,1.015,0,0,0-.4-.387,1.576,1.576,0,0,0-.815-.174,1.95,1.95,0,0,0-1.162.481,7.654,7.654,0,0,0-1.242,1.229,14.885,14.885,0,0,0-1.175,1.723,17.83,17.83,0,0,0-.988,1.95,13.621,13.621,0,0,0-.668,1.91,5.464,5.464,0,0,0-.267,1.576c0,.534.16.815.481.815a1.79,1.79,0,0,0,1.149-.508,6.344,6.344,0,0,0,1.149-1.269,12.154,12.154,0,0,0,1.028-1.7q.481-.921.841-1.763c.24-.561.427-1.055.561-1.469a4.074,4.074,0,0,0,.214-.841.24.24,0,0,1,.214-.254,1.335,1.335,0,0,1,.574,0,6.077,6.077,0,0,1,.735.254,4.4,4.4,0,0,1,.748.387,2.857,2.857,0,0,1,.561.454.681.681,0,0,1,.227.414,2.39,2.39,0,0,1-.24.815c-.16.387-.347.815-.561,1.336s-.307.681-.454,1.042-.307.721-.441,1.068a8.94,8.94,0,0,0-.307.975,3.058,3.058,0,0,0-.134.748v.107c.214,0,.481-.174.8-.534A13.714,13.714,0,0,0,97.329,131c.374-.561.748-1.162,1.135-1.83s.748-1.336,1.1-1.937.641-1.189.895-1.7l.561-1.122a.361.361,0,0,1,.361-.187,1.442,1.442,0,0,1,.507.107,1.135,1.135,0,0,1,.414.28.334.334,0,0,1,.107.361c-.134.307-.361.761-.668,1.336s-.668,1.336-1.082,1.99-.855,1.469-1.336,2.23a24.608,24.608,0,0,1-1.456,2.083,11.447,11.447,0,0,1-1.429,1.523,2.1,2.1,0,0,1-1.335.6,1.963,1.963,0,0,1-1.149-.334,4.248,4.248,0,0,1-.815-.708,3.66,3.66,0,0,1-.681-1.068c-.187.214-.387.441-.641.681a6.424,6.424,0,0,1-.775.681,5.007,5.007,0,0,1-.881.534,2.1,2.1,0,0,1-.908.214,2.938,2.938,0,0,1-1.549-.4,3.218,3.218,0,0,1-1.122-1.042,4.9,4.9,0,0,1-.694-1.429,5.53,5.53,0,0,1-.12-1.563Z" transform="translate(28.757 40.651)" fill="#f9db7d"/>
      <path id="Path_462" data-name="Path 462" d="M111.62,124.452a1.082,1.082,0,0,1,.534-.534.748.748,0,0,1,.561,0,.561.561,0,0,1,.361.387,1.042,1.042,0,0,1-.08.735,8.829,8.829,0,0,1-1.189,1.937,24.048,24.048,0,0,1-1.8,2.017c-.681.681-1.416,1.335-2.23,2.03s-1.643,1.336-2.5,2.043c-.668,1.336-1.336,2.671-2.15,4.007a39.341,39.341,0,0,1-2.3,3.606,15.48,15.48,0,0,1-2.27,2.578,3.232,3.232,0,0,1-2.083.988,4.78,4.78,0,0,1-1.7-.254,3.032,3.032,0,0,1-1.082-.654,2.364,2.364,0,0,1-.708-1.6,2.4,2.4,0,0,1,.574-1.429,10.414,10.414,0,0,1,1.576-1.643c.668-.588,1.429-1.2,2.3-1.843s1.8-1.336,2.778-2.017l.441-.815.28-.454a2.191,2.191,0,0,0,.16-.294l.16-.294a3.245,3.245,0,0,0,.214-.467c.093-.187.2-.467.361-.815-.347.427-.694.828-1.028,1.189s-.668.695-.975.975a4.952,4.952,0,0,1-.841.668,1.335,1.335,0,0,1-.668.254,1.629,1.629,0,0,1-.988-.334,3.619,3.619,0,0,1-.828-.8,3.779,3.779,0,0,1-.561-1.015,2.671,2.671,0,0,1-.267-.962,5.236,5.236,0,0,1,.187-1.336,12.02,12.02,0,0,1,.481-1.429q.321-.721.681-1.482l.761-1.469c.2-.387.387-.788.588-1.162s.374-.761.521-1.109a5.879,5.879,0,0,0,.361-.975,2.671,2.671,0,0,0,.147-.761c0-.227.16-.347.494-.347a2.8,2.8,0,0,1,1.108.254,3.352,3.352,0,0,1,1.108.735,1.563,1.563,0,0,1,.508,1.162,2.672,2.672,0,0,1-.174.788c-.12.321-.267.694-.454,1.1s-.4.855-.641,1.336-.494.962-.748,1.456l-.908,1.736c-.294.561-.548,1.068-.775,1.523s-.4.828-.534,1.108-.174.414-.12.414a1.722,1.722,0,0,0,.588-.441,14.3,14.3,0,0,0,1-1.149c.374-.467.8-.988,1.255-1.589s.881-1.175,1.336-1.776l1.215-1.683.921-1.336.748-1.936a4.982,4.982,0,0,0,.28-.815,1.616,1.616,0,0,1,.24-1,.881.881,0,0,1,.708-.307,1.336,1.336,0,0,1,.721.254,5.583,5.583,0,0,1,.748.654,4.127,4.127,0,0,1,.588.841,1.95,1.95,0,0,1,.24.881,4.179,4.179,0,0,1-.174.841c-.12.387-.267.855-.467,1.416s-.427,1.162-.694,1.83-.548,1.336-.841,2.057a31.346,31.346,0,0,0,2.938-2.671,12.021,12.021,0,0,0,1.977-2.751ZM94.339,142.321a2.257,2.257,0,0,0,1.336-.467,8.134,8.134,0,0,0,1.336-1.242,16.987,16.987,0,0,0,1.336-1.843,25.914,25.914,0,0,0,1.336-2.23q-1.2.908-2.244,1.723c-.708.548-1.336,1.042-1.843,1.509a9.612,9.612,0,0,0-1.229,1.242,1.6,1.6,0,0,0-.454.935C94.058,142.228,94.165,142.321,94.339,142.321Z" transform="translate(31.186 40.651)" fill="#f9db7d"/>
      <path id="Path_463" data-name="Path 463" d="M22.577,145.04h6.931v10.016a16.027,16.027,0,0,1-4.875,2.244,20.032,20.032,0,0,1-5.449.775,14.37,14.37,0,0,1-6.8-1.576A11.726,11.726,0,0,1,7.659,152.1a12.9,12.9,0,0,1,0-12.834,11.793,11.793,0,0,1,4.781-4.394,14.825,14.825,0,0,1,6.931-1.576,15.639,15.639,0,0,1,6.237,1.175,11.713,11.713,0,0,1,4.594,3.392l-5.115,4.5a6.784,6.784,0,0,0-5.342-2.671,5.636,5.636,0,0,0-4.194,1.589,6.8,6.8,0,0,0,0,8.627,5.342,5.342,0,0,0,4.113,1.683,7.493,7.493,0,0,0,2.911-.574Z" transform="translate(1.982 44.731)" fill="#fff"/>
      <path id="Path_464" data-name="Path 464" d="M26.91,133.71h8.013v23.679H26.91Z" transform="translate(9.015 44.869)" fill="#fff"/>
      <path id="Path_465" data-name="Path 465" d="M46.7,151.46H44.533v5.956H36.52V133.711H47.925a14,14,0,0,1,5.716,1.082,8.761,8.761,0,0,1,3.926,12.287,8.24,8.24,0,0,1-3.285,3.045l4.968,7.305H50.73Zm3.179-10.844a3.552,3.552,0,0,0-2.431-.721H44.533v5.542h2.911a3.552,3.552,0,0,0,2.431-.721,2.564,2.564,0,0,0,.815-2.043,2.671,2.671,0,0,0-.815-2.083Z" transform="translate(12.239 44.868)" fill="#fff"/>
      <path id="Path_466" data-name="Path 466" d="M107.082,156.484a12.153,12.153,0,0,1,0-21.6,15.653,15.653,0,0,1,13.742,0,12.127,12.127,0,0,1,4.781,4.421,12.661,12.661,0,0,1,0,12.754,12.126,12.126,0,0,1-4.781,4.421,15.652,15.652,0,0,1-13.742,0Zm9.562-5.6a5.342,5.342,0,0,0,1.923-2.07,7.279,7.279,0,0,0,0-6.264,5.209,5.209,0,0,0-1.923-2.057,5.342,5.342,0,0,0-5.342,0,5.182,5.182,0,0,0-1.91,2.057,7.278,7.278,0,0,0,0,6.264,5.13,5.13,0,0,0,7.252,2.07Z" transform="translate(33.707 44.731)" fill="#fff"/>
      <path id="Path_467" data-name="Path 467" d="M127,157.408a15.707,15.707,0,0,1-4.594-1.776l2.578-5.823a16.5,16.5,0,0,0,3.793,1.576,15.011,15.011,0,0,0,4.007.588,6.2,6.2,0,0,0,2.364-.32,1.028,1.028,0,0,0,.721-.962c0-.507-.321-.868-.935-1.122a19.275,19.275,0,0,0-3.058-.815,35.056,35.056,0,0,1-4.567-1.229,7.813,7.813,0,0,1-3.192-2.164,5.943,5.943,0,0,1-1.336-4.087,6.985,6.985,0,0,1,1.255-4.007,8.227,8.227,0,0,1,3.739-2.871,15.358,15.358,0,0,1,6.037-1.055,22.154,22.154,0,0,1,4.794.521,15.157,15.157,0,0,1,4.14,1.549l-2.4,5.783a14.69,14.69,0,0,0-6.6-1.763c-2.057,0-3.085.494-3.085,1.5,0,.467.307.828.922,1.068a22.369,22.369,0,0,0,3,.761,29.631,29.631,0,0,1,4.567,1.162,8.013,8.013,0,0,1,3.232,2.15,5.729,5.729,0,0,1,1.335,4.007,6.944,6.944,0,0,1-1.255,4.007,8.414,8.414,0,0,1-3.739,2.871,15.346,15.346,0,0,1-6.037,1.068A25.456,25.456,0,0,1,127,157.408Z" transform="translate(41.056 44.743)" fill="#fff"/>
      <path id="Path_468" data-name="Path 468" d="M144.4,157.407a15.759,15.759,0,0,1-4.581-1.776l2.578-5.823a16.639,16.639,0,0,0,3.779,1.576,15.184,15.184,0,0,0,4.007.588,6.2,6.2,0,0,0,2.364-.321,1.028,1.028,0,0,0,.721-.962c0-.507-.321-.868-.935-1.122a19.7,19.7,0,0,0-3.058-.815,35.926,35.926,0,0,1-4.581-1.229,7.866,7.866,0,0,1-3.179-2.164,5.943,5.943,0,0,1-1.336-4.087,6.985,6.985,0,0,1,1.255-4.007,8.227,8.227,0,0,1,3.739-2.871,15.36,15.36,0,0,1,6.037-1.055,21.941,21.941,0,0,1,4.781.521,15.249,15.249,0,0,1,4.153,1.549l-2.4,5.783a14.69,14.69,0,0,0-6.6-1.763c-2.057,0-3.085.494-3.085,1.5,0,.467.307.828.922,1.068a21.373,21.373,0,0,0,3,.761,30.443,30.443,0,0,1,4.567,1.162,8.013,8.013,0,0,1,3.232,2.15,5.729,5.729,0,0,1,1.336,4.007,6.945,6.945,0,0,1-1.255,4.007,8.414,8.414,0,0,1-3.739,2.871,15.346,15.346,0,0,1-6.037,1.068A25.668,25.668,0,0,1,144.4,157.407Z" transform="translate(46.898 44.743)" fill="#fff"/>
      <path id="Path_469" data-name="Path 469" d="M99.881,145.012a6.05,6.05,0,0,0,2.457-2.137,5.128,5.128,0,0,0,.775-2.217,4.38,4.38,0,0,1-2.591.975,6.424,6.424,0,0,1-2.27-.361,5.09,5.09,0,0,1-1.616-.988,4.006,4.006,0,0,1-.935-1.429,3.845,3.845,0,0,1-.254-1.336,4.006,4.006,0,0,1,.895-2.391,10.094,10.094,0,0,1,.975-1.1,18.482,18.482,0,0,0-3.726-.334H80.93v23.679H94.285a13.475,13.475,0,0,0,7.439-1.7,5.5,5.5,0,0,0,2.578-4.835,5.649,5.649,0,0,0-1.162-3.579A7,7,0,0,0,99.881,145.012Zm-11.1-5.716h3.726q2.671,0,2.671,1.763c0,1.162-.868,1.75-2.671,1.75H88.783Zm4.808,12.514H88.783V148.1h4.808c1.763,0,2.671.614,2.671,1.856S95.354,151.81,93.591,151.81Z" transform="translate(27.139 44.865)" fill="#fff"/>
      <path id="Path_470" data-name="Path 470" d="M64.166,135.663a4.1,4.1,0,0,1-1.656-.628,5.342,5.342,0,0,1-1.336-1.336H56.18v23.679h18.7V151.2H64.193Z" transform="translate(18.835 44.865)" fill="#fff"/>
    </g>
  </g>
</svg>
